<?xml version="1.0" encoding="UTF-8" standalone="no"?>
<!-- Created with Inkscape (http://www.inkscape.org/) -->

<svg
   xmlns:dc="http://purl.org/dc/elements/1.1/"
   xmlns:cc="http://creativecommons.org/ns#"
   xmlns:rdf="http://www.w3.org/1999/02/22-rdf-syntax-ns#"
   xmlns:svg="http://www.w3.org/2000/svg"
   xmlns="http://www.w3.org/2000/svg"
   xmlns:sodipodi="http://sodipodi.sourceforge.net/DTD/sodipodi-0.dtd"
   xmlns:inkscape="http://www.inkscape.org/namespaces/inkscape"
   width="257mm"
   height="156mm"
   viewBox="0 0 257 156"
   version="1.1"
   id="svg8"
   inkscape:version="0.92.4 (fd57863, 2020-04-02)"
   sodipodi:docname="flag.svg"
   style="enable-background:new">
  <defs
     id="defs2">
    <style
       id="style4543">.cls-1{fill:#0082b3;}.cls-2{fill:#fff;}</style>
  </defs>
  <sodipodi:namedview
     id="base"
     pagecolor="#ffffff"
     bordercolor="#666666"
     borderopacity="1.0"
     inkscape:pageopacity="0.0"
     inkscape:pageshadow="2"
     inkscape:zoom="0.7"
     inkscape:cx="136.02845"
     inkscape:cy="667.09534"
     inkscape:document-units="mm"
     inkscape:current-layer="layer1"
     showgrid="false"
     showguides="true"
     inkscape:guide-bbox="true"
     inkscape:window-width="2560"
     inkscape:window-height="1365"
     inkscape:window-x="0"
     inkscape:window-y="1024"
     inkscape:window-maximized="1">
    <sodipodi:guide
       position="-23.056547,15.875"
       orientation="1,0"
       id="guide4833"
       inkscape:locked="false" />
    <sodipodi:guide
       position="234.34523,81.264883"
       orientation="1,0"
       id="guide4835"
       inkscape:locked="false" />
  </sodipodi:namedview>
  <metadata
     id="metadata5">
    <rdf:RDF>
      <cc:Work
         rdf:about="">
        <dc:format>image/svg+xml</dc:format>
        <dc:type
           rdf:resource="http://purl.org/dc/dcmitype/StillImage" />
        <dc:title></dc:title>
      </cc:Work>
    </rdf:RDF>
  </metadata>
  <g
     inkscape:label="Layer 1"
     inkscape:groupmode="layer"
     id="layer1"
     style="display:inline;opacity:1"
     transform="translate(0,-141)">
    <rect
       style="opacity:1;fill:#ffffff;stroke:none;stroke-width:4.85605192;stroke-miterlimit:4;stroke-dasharray:none"
       id="rect4838"
       width="257.40176"
       height="78.241074"
       x="-0.37797382"
       y="218.75893"
       ry="0" />
    <path
       style="opacity:0.28000004;fill:#1199ff;stroke-width:0.26458332"
       d="M -0.37797556,221.0268 257.0238,140.89584 v 74.08335 L -0.37797556,264.87204 Z"
       id="rect4518"
       inkscape:connector-curvature="0"
       sodipodi:nodetypes="ccccc" />
    <path
       style="opacity:0.28000004;fill:#ff2400;stroke-width:0.26458332"
       d="M -0.37797556,275.17187 257.0238,237.75223 v 28.44271 L -0.37797556,285.09375 Z"
       id="rect4524"
       inkscape:connector-curvature="0"
       sodipodi:nodetypes="ccccc" />
    <path
       style="opacity:0.28000004;fill:#009900;stroke-width:0.26458332"
       d="M -0.37797556,285.09375 257.0238,266.19494 V 297 H -0.37797556 Z"
       id="rect4526"
       inkscape:connector-curvature="0"
       sodipodi:nodetypes="ccccc" />
    <g
       id="Слой_1-2"
       data-name="Слой 1"
       transform="matrix(0.47377504,0,0,0.47377504,109.28458,196.49828)">
      <g
         id="g4828"
         transform="translate(27.142857,17.142857)">
        <path
           id="path4549"
           d="m -80.815716,144.14286 17.75,-17.75 a 59.18,59.18 0 1 1 76.75,0 l 17.75,17.75 a 84.23,84.23 0 1 0 -112.25,0 z"
           class="cls-1"
           inkscape:connector-curvature="0"
           style="fill:#0082b3" />
        <path
           id="path4551"
           d="m -24.685716,51.342857 c -38.94,-43.4999999 -78.000004,-37.15 -78.000004,-37.15 42.500004,23.25 78.000004,77.32 78.000004,77.32 0,0 35.52,-54.07 78,-77.32 0.02,0 -39.07,-6.3499999 -78,37.15 z"
           class="cls-1"
           inkscape:connector-curvature="0"
           style="fill:#0082b3" />
        <path
           id="path4553"
           d="m -51.715716,87.202857 a 0.82,0.82 0 0 0 0.82,-0.8 v 0 -3 l 3,1.74 a 0.8,0.8 0 0 0 0.43,0.09 0.76,0.76 0 0 0 0.69,-0.39 0.81,0.81 0 0 0 -0.28,-1.11 v 0 l -2.94,-1.71 2.49,-1.48 a 0.81,0.81 0 0 0 0.3,-1.11 v 0 a 0.78,0.78 0 0 0 -1.08,-0.36 h -0.08 l -3.32,2 -5.29,-3.03 5.28,-3 3.32,2 a 0.67,0.67 0 0 0 0.39,0.12 0.91,0.91 0 0 0 0.72,-0.39 0.82,0.82 0 0 0 -0.27,-1.12 v 0 l -2.51,-1.51 3,-1.71 a 0.84,0.84 0 0 0 0.42,-1.1 l -0.09,-0.15 a 0.82,0.82 0 0 0 -1.11,-0.31 v 0 l -3,1.72 v -3 a 0.82,0.82 0 1 0 -1.64,0 v 3.95 l -5.25,3 v -6.11 l 3.31,-1.89 a 0.83,0.83 0 0 0 0.33,-1.12 0.8,0.8 0 0 0 -1.15,-0.28 v 0 l -2.55,1.4 v -3.34 a 0.83,0.83 0 0 0 -0.83,-0.83 v 0 a 0.82,0.82 0 0 0 -0.77,0.83 v 3.4 l -2.61,-1.46 a 0.77,0.77 0 0 0 -1.06,0.25 v 0 a 0.8,0.8 0 0 0 0.27,1.1 v 0 l 3.39,1.9 v 6.11 l -5.37,-3.1 v -3.76 a 0.79,0.79 0 0 0 -0.75,-0.83 v 0 a 0.83,0.83 0 0 0 -0.81,0.83 v 2.88 l -2.97,-1.66 a 0.82,0.82 0 0 0 -1.11,0.31 v 0 a 0.82,0.82 0 0 0 0.29,1.12 v 0 l 2.92,1.69 -2.6,1.48 a 0.78,0.78 0 0 0 -0.32,1.07 0.21,0.21 0 0 0 0,0.06 0.77,0.77 0 0 0 0.7,0.39 1.06,1.06 0 0 0 0.43,-0.12 l 3.33,-2 5.36,3.07 -5.29,3.21 -3.33,-2 a 0.81,0.81 0 0 0 -1.12,0.25 v 0 a 0.84,0.84 0 0 0 0.28,1.13 l 2.55,1.51 -2.92,1.7 a 0.82,0.82 0 0 0 -0.31,1.12 v 0 a 0.77,0.77 0 0 0 0.7,0.42 1.48,1.48 0 0 0 0.44,-0.13 l 2.94,-1.64 v 2.88 a 0.81,0.81 0 0 0 0.81,0.81 v 0 a 0.82,0.82 0 0 0 0.8,-0.82 v -3.85 l 5.39,-3.07 v 6.08 l -3.42,1.91 a 0.81,0.81 0 0 0 -0.33,1.1 v 0 a 0.74,0.74 0 0 0 0.69,0.42 0.93,0.93 0 0 0 0.4,-0.09 l 2.61,-1.48 v 3.45 a 0.81,0.81 0 0 0 0.8,0.82 v 0 a 0.83,0.83 0 0 0 0.83,-0.81 v 0 -3.4 l 2.52,1.43 a 0.86,0.86 0 0 0 0.39,0.09 0.78,0.78 0 0 0 0.73,-0.42 0.84,0.84 0 0 0 -0.33,-1.13 v 0 l -3.31,-1.85 v -6.15 l 5.25,3 v 3.89 a 0.83,0.83 0 0 0 0.8,0.89 z"
           class="cls-1"
           inkscape:connector-curvature="0"
           style="fill:#0082b3" />
        <path
           id="path4555"
           d="m 15.204284,82.462857 v 3.89 a 0.81,0.81 0 0 0 0.72,0.9 0.82,0.82 0 0 0 0.91,-0.72 v -3.18 l 3,1.74 a 0.89,0.89 0 0 0 1.13,-0.3 0.81,0.81 0 0 0 -0.29,-1.11 v 0 l -3,-1.71 2.49,-1.48 a 0.81,0.81 0 0 0 0.31,-1.1 v 0 a 0.79,0.79 0 0 0 -1.08,-0.29 v 0 l -3.33,2 -5.35,-3.1 5.28,-3 3.33,2 a 0.64,0.64 0 0 0 0.39,0.14 0.93,0.93 0 0 0 0.73,-0.39 0.82,0.82 0 0 0 -0.29,-1.12 v 0 l -2.44,-1.49 3,-1.71 a 0.83,0.83 0 0 0 0.29,-1.13 0.82,0.82 0 0 0 -1.12,-0.29 l -3,1.72 v -3 a 0.83,0.83 0 0 0 -0.73,-0.91 0.82,0.82 0 0 0 -0.9,0.73 0.54,0.54 0 0 0 0,0.18 v 3.92 l -5.25,3 v -6.2 l 3.3,-1.89 a 0.81,0.81 0 0 0 0.33,-1.11 v 0 a 0.78,0.78 0 0 0 -1.12,-0.31 l -2.5199998,1.42 v -3.36 a 0.83,0.83 0 0 0 -0.83,-0.83 v 0 a 0.82,0.82 0 0 0 -0.82,0.82 v 0 3.4 l -2.63,-1.45 a 0.79,0.79 0 0 0 -1.08,0.25 c 0,0 0,0 0,0 a 0.81,0.81 0 0 0 0.29,1.11 v 0 l 3.4,1.92 v 6.11 l -5.37,-3.1 v -3.77 a 0.81,0.81 0 0 0 -0.77,-0.83 v 0 a 0.85,0.85 0 0 0 -0.82,0.83 v 2.88 l -2.89,-1.66 a 0.8,0.8 0 0 0 -1.11,0.29 v 0 a 0.81,0.81 0 0 0 0.28,1.12 v 0 l 2.93000001,1.69 -2.56000001,1.53 a 0.8,0.8 0 0 0 -0.31,1.09 v 0 a 0.77,0.77 0 0 0 0.7,0.39 0.93,0.93 0 0 0 0.43,-0.12 l 3.34,-2 5.35,3.07 -5.36,3.2 -3.34,-2 a 0.82,0.82 0 0 0 -1.13,0.27 v 0 a 0.84,0.84 0 0 0 0.28,1.13 l 2.56000001,1.51 -2.91000001,1.72 a 0.81,0.81 0 0 0 -0.31,1.1 v 0 a 0.74,0.74 0 0 0 0.69,0.42 1.66,1.66 0 0 0 0.42,-0.12 l 2.89,-1.66 v 2.88 a 0.83,0.83 0 0 0 0.82,0.81 v 0 a 0.82,0.82 0 0 0 0.8,-0.82 v -3.86 l 5.37,-3.07 v 6.08 l -3.4,1.91 a 0.81,0.81 0 0 0 -0.32,1.11 v 0 a 0.77,0.77 0 0 0 0.7,0.42 0.93,0.93 0 0 0 0.4,-0.09 l 2.61,-1.48 v 3.45 a 0.81,0.81 0 0 0 0.8,0.82 v 0 a 0.83,0.83 0 0 0 0.83,-0.81 v 0 -3.4 l 2.5199998,1.43 a 0.79,0.79 0 0 0 0.38,0.09 0.78,0.78 0 0 0 0.73,-0.42 0.83,0.83 0 0 0 -0.31,-1.12 v 0 l -3.2999998,-1.85 v -6.17 z"
           class="cls-1"
           inkscape:connector-curvature="0"
           style="fill:#0082b3" />
        <path
           id="path4557"
           d="M 62.224284,145.20286 H -7.0257158 c -8.1000002,1.7 -13.3100002,7.76 -15.8300002,11.48 l 12.24,12.25 -14.23,14.27 -13.63,-13.64 12.37,-12.36 c -2.38,-3.65 -7.69,-10.2 -16.17,-12 h -69.250004 v 23.76 h -2.76 v 5.24 h 70.000004 a 20.52,20.52 0 0 0 39.1900002,0 H 64.904284 v -5.22 h -2.76 z"
           class="cls-1"
           inkscape:connector-curvature="0"
           style="fill:#0082b3" />
        <polygon
           transform="translate(-114.28572,-2.8571429)"
           id="polygon4559"
           points="89.85,171.92 101.76,171.92 89.85,160 "
           class="cls-1"
           style="fill:#0082b3" />
        <polygon
           transform="translate(-114.28572,-2.8571429)"
           id="polygon4561"
           points="89.44,172.32 77.56,172.32 89.44,184.21 "
           class="cls-1"
           style="fill:#0082b3" />
        <path
           id="path4563"
           d="m -83.285716,109.29286 3.21,5.3 -0.35,0.21 c -0.63,-1 -1.16,-1.32 -1.6,-1 a 1.2,1.2 0 0 0 -0.29,0.26 l -1.4,1.91 2.3,3.81 1.84,-0.32 a 1.7,1.7 0 0 0 0.64,-0.23 c 0.53,-0.32 0.55,-0.92 0.06,-1.81 l 0.35,-0.21 2,3.33 -0.35,0.21 a 1.67,1.67 0 0 0 -1.81,-0.59 l -12.39,1.88 -0.31,-0.52 7.68,-10.38 a 1.29,1.29 0 0 0 0.08,-1.55 v -0.06 z m -0.92,7.3 -3.08,4.18 5.07,-0.9 z"
           class="cls-2"
           inkscape:connector-curvature="0"
           style="fill:#ffffff" />
        <path
           id="path4565"
           d="m -88.495716,93.642857 1.94,6.3 -0.39,0.120003 c -0.32,-0.910003 -0.66,-1.310003 -1,-1.200003 a 0.45,0.45 0 0 0 -0.25,0.18 l -3.56,5.000003 0.67,0.34 3.45,-1.07 a 1.47,1.47 0 0 0 1.19,-1.7 1.67,1.67 0 0 0 -0.08,-0.3 l 0.39,-0.12 1.85,6 -0.39,0.12 a 1.48,1.48 0 0 0 -1.77,-1.1 1.33,1.33 0 0 0 -0.28,0.1 l -8.71,2.69 a 1.49,1.49 0 0 0 -1.19,1.74 1.12,1.12 0 0 0 0.08,0.26 l -0.39,0.12 -1.85,-6 0.39,-0.12 a 1.48,1.48 0 0 0 1.8,1.08 l 0.25,-0.08 4.18,-1.29 -5.69,-3 a 0.81,0.81 0 0 0 -0.69,-0.11 c -0.49,0.15 -0.61,0.7 -0.36,1.66 l -0.39,0.12 -1.650004,-5.350003 0.39,-0.12 a 4.16,4.16 0 0 0 0.720004,1.48 7.06,7.06 0 0 0 2.17,1.570003 l 3.24,1.67 5,-7.270003 c 0.18,-0.26 0.34,-0.52 0.5,-0.79 a 1.33,1.33 0 0 0 0.09,-0.9 z"
           class="cls-2"
           inkscape:connector-curvature="0"
           style="fill:#ffffff" />
        <path
           id="path4567"
           d="m -89.475716,78.562857 0.33,6.19 h -0.4 c -0.1,-1.15 -0.41,-1.71 -0.91,-1.68 a 0.8,0.8 0 0 0 -0.38,0.1 l -2.15,0.97 0.24,4.45 1.78,0.59 a 1.87,1.87 0 0 0 0.67,0.09 c 0.62,0 0.92,-0.55 0.91,-1.57 h 0.4 l 0.21,3.89 h -0.41 c -0.05,-0.63 -0.49,-1.08 -1.31,-1.37 l -11.790004,-4.02 v -0.61 l 11.640004,-5.6 a 1.3,1.3 0 0 0 0.8,-1.33 v -0.08 z m -4.25,6 -4.65,2.24 4.89,1.6 z"
           class="cls-2"
           inkscape:connector-curvature="0"
           style="fill:#ffffff" />
        <path
           id="path4569"
           d="m -99.725716,61.802857 a 1.49,1.49 0 0 0 1,1.82 1.57,1.57 0 0 0 0.3,0 l 8.52,1.53 a 3.35,3.35 0 0 0 1.34,0.06 c 0.34,-0.11 0.57,-0.46 0.67,-1 v -0.07 l 0.28,0.06 1.85,0.28 1.74,0.2 -0.1,0.57 a 6.1,6.1 0 0 0 -1.85,0.28 3.21,3.21 0 0 0 -1.93,2.63 l -0.64,3.57 a 4.17,4.17 0 0 0 0.57,3.53 5.62,5.62 0 0 0 1.83,1.25 l -0.09,0.5 -3.77,-0.85 a 2.31,2.31 0 0 0 -1.58,-2.66 31.2,31.2 0 0 0 -7.44,-2.2 4,4 0 0 0 -1.820004,-0.06 c -0.42,0.17 -0.72,0.67 -0.88,1.49 l -0.42,-0.07 2,-11 z m 9.64,6.5 -9.13,-1.64 a 0.88,0.88 0 0 0 -0.64,0.06 c -0.240004,0.15 -0.450004,0.68 -0.610004,1.58 -0.16,0.9 0,1.49 0.4,1.75 a 8.61,8.61 0 0 0 2.180004,0.67 c 3.79,0.84 6.52,1.83 8.17,3 l 0.76,-4.24 c 0.09,-0.52 0,-0.84 -0.4,-1 a 4.86,4.86 0 0 0 -0.73,-0.18 z"
           class="cls-2"
           inkscape:connector-curvature="0"
           style="fill:#ffffff" />
        <path
           id="path4571"
           d="m -85.455716,49.312857 3.35,2.36 -4.34,10.23 -0.38,-0.16 a 1.46,1.46 0 0 0 -0.57,-2 1.27,1.27 0 0 0 -0.32,-0.13 l -8.39,-3.56 a 1.5,1.5 0 0 0 -2,0.58 1.12,1.12 0 0 0 -0.11,0.25 l -0.37,-0.16 4.25,-10.11 3.74,1.58 -0.15,0.36 -0.32,-0.05 c -2,-0.42 -3.35,0.21 -4.1,1.87 l -0.71,1.58 c -0.18,0.39 -0.13,0.67 0.13,0.85 a 6,6 0 0 0 0.62,0.31 l 4.1,1.73 a 8.71,8.71 0 0 0 0.37,-1.23 2,2 0 0 0 -0.14,-1.26 6.88,6.88 0 0 0 -1.65,-1.58 l 0.16,-0.38 6,2.52 -0.16,0.39 a 6.54,6.54 0 0 0 -2.33,-0.11 c -0.51,0.13 -1.06,0.76 -1.63,1.9 l 4.07,1.73 a 1.74,1.74 0 0 0 1.05,0.22 c 0.27,-0.08 0.59,-0.54 0.94,-1.37 a 4.76,4.76 0 0 0 0.29,-3.34 8.26,8.26 0 0 0 -1.55,-2.54 z"
           class="cls-2"
           inkscape:connector-curvature="0"
           style="fill:#ffffff" />
        <path
           id="path4573"
           d="m -70.285716,35.142857 -3.9,5 -0.32,-0.25 a 1.48,1.48 0 0 0 -0.05,-2.07 1.89,1.89 0 0 0 -0.27,-0.2 l -7.46,-5.84 6.07,11 -0.29,0.37 -12.08,-3.44 7.51,5.86 a 1.45,1.45 0 0 0 2.06,0 2.2,2.2 0 0 0 0.2,-0.23 l 0.32,0.25 -2.38,3.05 -0.32,-0.25 a 1.45,1.45 0 0 0 -0.09,-2.03 l -0.22,-0.16 -7.16,-5.58 a 1.86,1.86 0 0 0 -1.27,-0.54 2.18,2.18 0 0 0 -1.13,0.87 l -0.27,-0.28 3,-3.87 9.4,2.65 -4.73,-8.64 3,-3.82 0.32,0.25 a 1.48,1.48 0 0 0 0.1,2.1 1.18,1.18 0 0 0 0.22,0.17 l 7.15,5.63 a 1.47,1.47 0 0 0 2.08,0 2.43,2.43 0 0 0 0.2,-0.25 z"
           class="cls-2"
           inkscape:connector-curvature="0"
           style="fill:#ffffff" />
        <path
           id="path4575"
           d="m -56.925716,25.202857 -5.07,3.7 -0.24,-0.33 a 1.49,1.49 0 0 0 0.51,-2 2.35,2.35 0 0 0 -0.19,-0.25 l -4.7,-6.44 1,9.77 a 1.45,1.45 0 0 0 1.93,0 l 0.24,0.33 -5.08,3.7 -0.24,-0.33 a 1.49,1.49 0 0 0 0.51,-2 2.35,2.35 0 0 0 -0.19,-0.25 l -5.37,-7.37 a 1.49,1.49 0 0 0 -2,-0.56 1,1 0 0 0 -0.24,0.17 l -0.3,-0.3 5.07,-3.74 0.24,0.33 a 1.49,1.49 0 0 0 -0.48,2.05 1.84,1.84 0 0 0 0.17,0.22 l 4.75,6.52 -1,-9.82 a 1.48,1.48 0 0 0 -2,0 l -0.16,-0.4 5.07,-3.69 0.24,0.33 a 1.47,1.47 0 0 0 -0.49,2 1.08,1.08 0 0 0 0.18,0.24 l 5.41,7.39 a 1.48,1.48 0 0 0 2,0.57 1.51,1.51 0 0 0 0.26,-0.18 z"
           class="cls-2"
           inkscape:connector-curvature="0"
           style="fill:#ffffff" />
        <path
           id="path4577"
           d="m -42.905716,19.332857 -5.81,2.35 -0.15,-0.38 a 1.47,1.47 0 0 0 1,-1.85 1.3,1.3 0 0 0 -0.1,-0.25 l -1.54,-3.8 -0.45,0.19 -1.37,7.17 -3.58,1.44 -0.15,-0.38 h 0.11 c 0.23,-0.09 0.41,-0.42 0.53,-1 l 1.4,-6.39 a 3.9,3.9 0 0 1 -2.39,-0.12 2.82,2.82 0 0 1 -1.68,-1.63 3,3 0 0 1 0.51,-3.3 7.12,7.12 0 0 1 3,-1.9999999 l 5.75,-2.32 0.16,0.38 a 1.48,1.48 0 0 0 -1,1.87 0.85,0.85 0 0 0 0.11,0.26 l 3.42,8.4499999 a 1.47,1.47 0 0 0 1.79,1.05 1.66,1.66 0 0 0 0.31,-0.12 z m -6.88,-4.54 -1.87,-4.59 c -0.21,-0.5199999 -0.7,-0.6199999 -1.45,-0.3199999 a 2.09,2.09 0 0 0 -1.47,1.9199999 4.09,4.09 0 0 0 0.39,1.68 2.89,2.89 0 0 0 1.61,1.87 4,4 0 0 0 2.46,-0.39 z"
           class="cls-2"
           inkscape:connector-curvature="0"
           style="fill:#ffffff" />
        <path
           id="path4579"
           d="m -22.735716,10.712857 -0.27,4.27 a 1.45,1.45 0 0 0 1.16,1.72 1.84,1.84 0 0 0 0.33,0 v 0.44 l -6.26,-0.39 v -0.41 a 1.46,1.46 0 0 0 1.67,-1.2 1.3,1.3 0 0 0 0,-0.34 l 0.57,-9.0999999 a 1.49,1.49 0 0 0 -1.2,-1.72 1.46,1.46 0 0 0 -0.29,0 v -0.44 l 6.27,0.39 v 0.4 a 1.49,1.49 0 0 0 -1.68,1.27 1.31,1.31 0 0 0 0,0.28 l -0.24,3.89 4.65,0.2799999 0.23,-3.8499999 a 1.48,1.48 0 0 0 -1.16,-1.74 1.84,1.84 0 0 0 -0.33,0 v -0.44 l 6.27,0.39 v 0.41 a 1.49,1.49 0 0 0 -1.69,1.26 1.31,1.31 0 0 0 0,0.28 l -0.58,9.0999999 a 1.46,1.46 0 0 0 1.19,1.68 1.66,1.66 0 0 0 0.32,0 v 0.41 l -6.3,-0.41 v -0.41 a 1.46,1.46 0 0 0 1.68,-1.2 1.72,1.72 0 0 0 0,-0.32 l 0.27,-4.27 z"
           class="cls-2"
           inkscape:connector-curvature="0"
           style="fill:#ffffff" />
        <path
           id="path4581"
           d="m 0.85428421,21.992857 -5.91000001,-1.85 0.12,-0.38 c 1.11,0.3 1.74,0.22 1.89,-0.27 a 0.86,0.86 0 0 0 0,-0.39 l -0.24,-2.37 -4.25,-1.34 -1.17,1.46 a 1.77,1.77 0 0 0 -0.33,0.6 c -0.18,0.59 0.2,1.05 1.15,1.39 l -0.12,0.39 -3.7100002,-1.16 0.13,-0.39 a 1.64,1.64 0 0 0 1.7400002,-0.76 l 8,-9.6199999 0.58,0.18 1.12000001,12.8799999 a 1.27,1.27 0 0 0 1,1.22 h 0.07 z m -4.14000001,-6.08 -0.46,-5.17 -3.21,4 z"
           class="cls-2"
           inkscape:connector-curvature="0"
           style="fill:#ffffff" />
        <path
           id="path4583"
           d="m 21.504284,19.202857 a 1.89,1.89 0 0 0 -0.6,-0.22 3.6,3.6 0 0 0 -2,0.71 l -7.71,4.51 a 11.21,11.21 0 0 1 -2.9999998,1.39 2.66,2.66 0 0 1 -1.93,-0.35 2.63,2.63 0 0 1 -1.13,-1.35 1.88,1.88 0 0 1 0.15,-1.71 1.51,1.51 0 0 1 0.91,-0.73 1.33,1.33 0 0 1 1.11,0.18 1.31,1.31 0 0 1 0.61,0.77 1.18,1.18 0 0 1 -0.16,1 1.88,1.88 0 0 1 -0.35,0.39 1.5,1.5 0 0 0 -0.35,0.36 0.34,0.34 0 0 0 0.08,0.49 h 0.08 c 0.57,0.35 1.67,0 3.2799998,-1 l 0.17,-0.1 -0.21,-10.12 a 2,2 0 0 0 -1.1099998,-1.66 l 0.23,-0.37 5.8399998,3.55 -0.22,0.36 -0.3,-0.18 c -0.61,-0.37 -1,-0.39 -1.22,-0.05 a 3.64,3.64 0 0 0 -0.19,1.64 v 5.13 l 4.12,-2.5 a 3.15,3.15 0 0 0 1,-0.89 0.72,0.72 0 0 0 -0.06,-0.87 4,4 0 0 0 -0.75,-0.62 l 0.22,-0.36 3.7,2.22 z"
           class="cls-2"
           inkscape:connector-curvature="0"
           style="fill:#ffffff" />
        <path
           id="path4585"
           d="m 26.354284,41.532857 -4.64,-4.71 0.29,-0.28 c 0.7,0.66 1.19,0.85 1.46,0.59 a 0.57,0.57 0 0 0 0.13,-0.27 l 0.86,-6.12 h -0.74 l -2.59,2.53 a 1.47,1.47 0 0 0 -0.29,2.06 1,1 0 0 0 0.23,0.24 l -0.29,0.28 -4.39,-4.48 0.29,-0.29 a 1.46,1.46 0 0 0 2.05,0.24 1.36,1.36 0 0 0 0.24,-0.24 l 6.51,-6.38 a 1.49,1.49 0 0 0 0.27,-2.08 2,2 0 0 0 -0.2,-0.21 l 0.29,-0.28 4.39,4.48 -0.29,0.29 a 1.49,1.49 0 0 0 -2.09,-0.21 1.34,1.34 0 0 0 -0.2,0.21 l -3.13,3.06 h 6.42 a 0.94,0.94 0 0 0 0.66,-0.21 c 0.37,-0.36 0.22,-0.91 -0.44,-1.65 l 0.29,-0.28 3.92,4 -0.29,0.28 a 4.16,4.16 0 0 0 -1.32,-1 7,7 0 0 0 -2.65,-0.4 h -3.64 l -1.08,8.73 a 5.84,5.84 0 0 0 -0.08,0.93 1.29,1.29 0 0 0 0.33,0.85 z"
           class="cls-2"
           inkscape:connector-curvature="0"
           style="fill:#ffffff" />
        <path
           id="path4587"
           d="m 46.774284,61.592857 a 3.12,3.12 0 0 1 -3.12,-0.46 5.91,5.91 0 0 1 -1.84,-2.74 l -0.57,-1.57 -3.62,1.38 a 1.45,1.45 0 0 0 -1.08,1.76 1.13,1.13 0 0 0 0.08,0.24 l -0.39,0.14 -2.14,-5.9 0.38,-0.14 a 1.47,1.47 0 0 0 1.79,1.05 1.66,1.66 0 0 0 0.31,-0.12 l 8.57,-3.09 a 1.5,1.5 0 0 0 1.09,-1.81 l -0.09,-0.25 0.38,-0.14 2.1,5.84 q 1.64,4.54 -1.85,5.81 z m -1,-2.87 a 4.15,4.15 0 0 0 1.73,-1.09 1.75,1.75 0 0 0 0.41,-1.88 l -0.12,-0.31 c -0.21,-0.58 -0.57,-0.78 -1.1,-0.59 l -4.86,1.76 a 5.8,5.8 0 0 0 1,1.8 c 0.65,0.68 1.62,0.79 2.93,0.31 z"
           class="cls-2"
           inkscape:connector-curvature="0"
           style="fill:#ffffff" />
        <path
           id="path4589"
           d="m 42.414284,78.972857 a 9.06,9.06 0 0 1 -1.79,-1.27 5.43,5.43 0 0 1 -1.12,-1.72 7.32,7.32 0 0 1 -0.49,-2 6.6,6.6 0 0 1 1.3,-5.13 7.29,7.29 0 0 1 9.75,-1.27 6.4,6.4 0 0 1 2.56,4.62 8.57,8.57 0 0 1 -0.16,2.72 4.82,4.82 0 0 0 -0.16,1.25 0.7,0.7 0 0 0 0.33,0.5 l 0.57,0.27 0.06,0.42 -4.44,0.57 -0.06,-0.48 0.57,-0.33 a 6.62,6.62 0 0 0 2.08,-2 4.18,4.18 0 0 0 0.71,-2.85 c -0.16,-1.32 -1.06,-2.18 -2.69,-2.57 a 11.26,11.26 0 0 0 -4.05,-0.1 c -4,0.51 -5.85,2 -5.55,4.43 a 5.35,5.35 0 0 0 1.11,2.72 8.25,8.25 0 0 0 1.91,1.62 z"
           class="cls-2"
           inkscape:connector-curvature="0"
           style="fill:#ffffff" />
        <path
           id="path4591"
           d="m 47.344284,98.952857 a 9.44,9.44 0 0 1 2.74,4.760003 l -0.52,-0.13 a 6,6 0 0 0 -1.6,-2.55 14.83,14.83 0 0 0 -5.29,-2.160003 14.65,14.65 0 0 0 -5.69,-0.67 5.67,5.67 0 0 0 -2.62,1.45 l -0.53,-0.14 a 9.1,9.1 0 0 1 3.53,-2.46 9.68,9.68 0 0 1 10,1.9 z"
           class="cls-2"
           inkscape:connector-curvature="0"
           style="fill:#ffffff" />
        <path
           id="path4593"
           d="m 31.094284,114.52286 2.63,-5.7 0.37,0.17 a 1.47,1.47 0 0 0 0.53,2 1.36,1.36 0 0 0 0.3,0.13 l 3.72,1.72 0.21,-0.45 -3.92,-6.2 1.61,-3.48 0.37,0.17 v 0.1 c -0.1,0.23 0,0.59 0.28,1.08 l 3.35,5.61 a 4,4 0 0 1 1.82,-1.55 2.81,2.81 0 0 1 2.34,0 3,3 0 0 1 1.89,2.75 7.44,7.44 0 0 1 -0.82,3.46 l -2.62,5.68 -0.37,-0.17 a 1.49,1.49 0 0 0 -0.58,-2 l -0.25,-0.11 -8.33,-3.78 a 1.47,1.47 0 0 0 -2,0.45 1.23,1.23 0 0 0 -0.14,0.31 z m 8.12,-1.4 4.52,2.09 c 0.51,0.23 0.94,0 1.28,-0.76 a 2.1,2.1 0 0 0 -0.24,-2.4 4.34,4.34 0 0 0 -1.44,-1 2.93,2.93 0 0 0 -2.45,-0.25 3.81,3.81 0 0 0 -1.53,2 z"
           class="cls-2"
           inkscape:connector-curvature="0"
           style="fill:#ffffff" />
        <path
           id="path4595"
           d="m 28.244284,120.70286 a 10.09,10.09 0 0 1 -1.26,-3.21 6.61,6.61 0 0 1 -0.15,-1.88 4,4 0 0 1 0.09,-1.09 l 0.44,0.32 a 5.68,5.68 0 0 0 0.62,3 21,21 0 0 0 9.25,6.5 6,6 0 0 0 3,-0.42 l 0.44,0.31 a 9.54,9.54 0 0 1 -5.27,1 9.88,9.88 0 0 1 -4.64,-1.82 10.32,10.32 0 0 1 -2.52,-2.71 z"
           class="cls-2"
           inkscape:connector-curvature="0"
           style="fill:#ffffff" />
      </g>
    </g>
  </g>
  <g
     inkscape:groupmode="layer"
     id="layer2"
     inkscape:label="Layer 2"
     transform="translate(0,-141)" />
</svg>
