<?xml version="1.0"?>
<svg xmlns="http://www.w3.org/2000/svg" xmlns:xlink="http://www.w3.org/1999/xlink" id="Layer_1" data-name="Layer 1" viewBox="0 0 512 512" width="512" height="512"><defs><linearGradient id="linear-gradient" x1="256.006" y1="492.965" x2="256.006" y2="15.454" gradientUnits="userSpaceOnUse"><stop offset="0.322" stop-color="#a163f5"/><stop offset="0.466" stop-color="#b074ee"/><stop offset="0.752" stop-color="#d8a1dd"/><stop offset="0.898" stop-color="#efbad3"/></linearGradient></defs><title>globe 02</title><path d="M353.892,307.825c.155-.1.3-.206.448-.316,57.48-40.662,75.653-119.6,39.827-181.891A137.37,137.37,0,0,0,209.1,73.387L196.934,52.655a162.558,162.558,0,0,1,23.588-10.721,7,7,0,0,0-4.752-13.17,177.022,177.022,0,0,0-28.594,13.324C103.354,90.665,74.53,198.63,122.92,282.759A174.482,174.482,0,0,0,229.68,364.9,177.024,177.024,0,0,0,259,370.167V430H194.149a22,22,0,1,0,0,44h168.7a22,22,0,1,0,0-44H299V369.288a174.9,174.9,0,0,0,63.757-22.032,177.1,177.1,0,0,0,26.472-18.775,7,7,0,1,0-9.117-10.625A162.921,162.921,0,0,1,358.493,333.5l-12.759-20.374Q349.934,310.6,353.892,307.825ZM213.911,281.3c3.046,5.228,19.472,29.326,63.124,29.324q4.308,0,8.98-.326c.965,1.4,2.061,3.154,3.02,4.685.6.953,1.2,1.908,1.8,2.856A123.772,123.772,0,0,1,181.3,275.73c15.071-11.963,24.543-17.572,31.527-13.862a22,22,0,0,1-.6,3.079C211.322,268.753,209.952,274.5,213.911,281.3Zm91.917,33.629c-1.611-2.078-3.455-5.023-4.926-7.373-2.46-3.931-4.585-7.324-6.912-9.576a6.967,6.967,0,0,0-5.555-1.936c-45.719,4.5-60.852-19.087-62.428-21.792-1.089-1.868-.918-2.87-.159-6.057.738-3.1,1.749-7.344.135-12.437a6.989,6.989,0,0,0-2.146-3.225c-16.919-14.345-37.164,1.006-51.032,12.065q-2.582-3.815-4.9-7.85a124.729,124.729,0,0,1,12.174-141.652c21.354,8.341,33.169,38.281,29.57,54.387a7,7,0,0,0,2.263,6.831c8.009,6.9,9.554,11.547,8.648,12.859-1.9,2.75-11.015,4.309-16.985,1.052a7.009,7.009,0,0,0-5.228-.6c-14.581,4.058-22.027,12.438-23.972,18.383-1.692,5.17-.591,10.6,3.1,15.29,1.252,1.591,4.58,5.818,25.15,8.26,7.186.852,19.989,1.912,25-.566,5.081-2.512,8.482-6.914,11.484-10.8,2.155-2.787,4.19-5.42,6.172-6.5,1.071-.579,1.827-.487,4.6.161a22.469,22.469,0,0,0,10.736.48c4.064-.946,7.167-3.306,9.66-5.2,1.965-1.494,3.661-2.785,4.955-2.838,1.895-.075,2.717.415,4.695,1.6a23.251,23.251,0,0,0,9.593,3.658,7,7,0,0,0,3.82-.587c10.82-4.993,18.355-6.439,22.4-4.3,3.285,1.741,5.618,6.667,6.936,14.642,2.113,12.791,3.235,21.006-.185,28.4a7,7,0,0,0-.563,4.015c2.739,17.591,11.022,32.158,18.33,45.009.187.329.368.65.554.977-1.327.837-2.668,1.661-4.037,2.454A123.985,123.985,0,0,1,305.828,314.925Zm46.445-23.373c-6.693-11.769-13.567-23.93-16.187-38.054,4.272-11.027,2.388-22.431.4-34.461-2.1-12.69-6.738-20.78-14.191-24.73-8.045-4.263-18.165-3.363-32.61,2.96a17.717,17.717,0,0,1-2.541-1.362,20.588,20.588,0,0,0-12.483-3.6c-5.694.233-9.666,3.255-12.858,5.682-1.652,1.257-3.212,2.444-4.358,2.71-1.12.26-2.33,0-4.373-.475-3.426-.8-8.6-2.012-14.465,1.165-4.578,2.485-7.763,6.6-10.572,10.24-2.173,2.81-4.231,5.473-6.313,6.649-5.436,1.181-28.592-1.323-33.574-4.089-.721-1.068-.562-1.555-.472-1.832.888-2.711,6.249-6.4,12.09-8.5,10.657,4.164,25.955,2.455,32.3-6.722,3.066-4.434,3.577-9.961,1.435-15.564-1.649-4.316-4.778-8.66-9.525-13.206,2.136-20.362-9.988-51.485-33.813-64.032A124.29,124.29,0,0,1,251,72.838c-.487.612-1.062,1.268-1.749,2.034-2.559,2.852-5.744,6.4-6.464,12.052-1.323,10.388,7.563,24.854,16.388,30.847,12.982,8.817,29.25,3.429,37.967-6.115q.736-.807,1.4-1.639c-1.414,17.982,8.068,38.026,25.3,53.051a36.929,36.929,0,0,0,24.742,9.334,43.079,43.079,0,0,0,7.3-.638c12.719-2.19,25.447-10.05,34.736-20.965A124.729,124.729,0,0,1,352.273,291.552Zm-35.3-213.623a47.481,47.481,0,0,0-12.522,13.56,25.633,25.633,0,0,0-2.313-8.538,63.458,63.458,0,0,0,7.632-7.386C312.206,76.281,314.605,77.075,316.974,77.929Zm65.058,54.67c.7,1.211,1.363,2.433,2.014,3.658-7.186,11.165-19.147,19.749-30.535,21.71-7.876,1.357-14.763-.479-20.467-5.451-14.669-12.789-22.448-29.471-20.3-43.536,1.57-10.279,8.406-18.605,19.814-24.194A123.015,123.015,0,0,1,382.032,132.6ZM274.769,70.493a122.985,122.985,0,0,1,18.719,1.452,48.841,48.841,0,0,1-4.528,3.1,7,7,0,0,0-1.7,10.378c6.128,7.466,2.346,13.724-.454,16.791-4.821,5.279-13.531,8.206-19.765,3.974-5.863-3.982-10.815-13.961-10.366-17.5.161-1.258,1.19-2.458,3-4.469,2.68-2.987,6.246-6.98,7.05-13.464Q270.733,70.494,274.769,70.493ZM135.056,275.778c-42.732-74.291-20.067-168.755,49.936-215.812l12.181,20.753c-58.732,40.322-77.561,120.15-41.408,183.006a137.119,137.119,0,0,0,177.592,56.019l12.842,20.5a161.222,161.222,0,0,1-211.143-64.471ZM371,452a8.033,8.033,0,0,1-8.149,8h-168.7a8,8,0,1,1,0-16h70.892c.314,0,.633.073.959.073s.645-.073.959-.073h24.082c.314,0,.633.073.959.073s.645-.073.959-.073h69.892A8.033,8.033,0,0,1,371,452Zm-86-22H273V370.9c.75.01,1.5.037,2.25.037,3.256,0,6.506-.11,9.75-.294Z" style="fill:url(#linear-gradient)"/></svg>
