<?xml version="1.0"?>
<svg xmlns="http://www.w3.org/2000/svg" xmlns:xlink="http://www.w3.org/1999/xlink" id="Layer_1" data-name="Layer 1" viewBox="0 0 512 512" width="512" height="512"><defs><linearGradient id="linear-gradient" x1="256.197" y1="482.065" x2="256.197" y2="22.537" gradientUnits="userSpaceOnUse"><stop offset="0.322" stop-color="#a163f5"/><stop offset="0.466" stop-color="#b074ee"/><stop offset="0.752" stop-color="#d8a1dd"/><stop offset="0.898" stop-color="#efbad3"/></linearGradient><linearGradient id="linear-gradient-2" x1="333.88" y1="482.065" x2="333.88" y2="22.537" xlink:href="#linear-gradient"/></defs><title>Intellectual Property</title><path d="M456.643,244.729,340.222,187.605A145.435,145.435,0,0,0,297.581,53.183C268.114,25.354,229.443,11.322,188.635,13.65A145.913,145.913,0,0,0,93.943,57.441,144.45,144.45,0,0,0,60.514,206.586a146.162,146.162,0,0,0,37.71,58.085,85.934,85.934,0,0,1,25.526,74.242l-1.5,11.466a8.663,8.663,0,0,0,7.747,10.2v58.536A33.864,33.864,0,0,0,164.157,453h67.19a34.073,34.073,0,0,0,22.285-8.015L330.5,497.458a6.056,6.056,0,0,0,3.379,1.092,5.968,5.968,0,0,0,3.378-1.017l80.08-54.547C441.261,426.69,460,391.3,460,362.391V250.116A6,6,0,0,0,456.643,244.729ZM106.468,255.95A133.522,133.522,0,0,1,64.5,153.34C66.956,86.16,121.827,30.062,189.371,25.628A133.478,133.478,0,0,1,328.01,187.369l-116.767,57.19A5.89,5.89,0,0,0,208,249.948V349H134.583l1.058-8.293A98.3,98.3,0,0,0,106.468,255.95ZM142,361h66v1.391A84.656,84.656,0,0,0,213.85,393H142Zm22.157,80A21.852,21.852,0,0,1,142,419.118V405h77.1A106.315,106.315,0,0,0,243.626,437.4,22.214,22.214,0,0,1,231.347,441ZM448,362.391c0,24.924-16.786,56.635-37.418,70.69l-76.7,52.258-76.7-52.259c-11.143-7.59-21.549-20.844-28.761-36.364-5.5-11.848-8.417-24.037-8.417-34.325v-108.7l114-55.834,114,56Z" style="fill:url(#linear-gradient)"/><path d="M287.243,334.083a6,6,0,1,0-8.379,8.59l36.283,35.389a6,6,0,0,0,8.379,0l65.37-63.757a6,6,0,1,0-8.379-8.59l-61.18,59.671Z" style="fill:url(#linear-gradient-2)"/></svg>
