<?xml version="1.0"?>
<svg xmlns="http://www.w3.org/2000/svg" xmlns:xlink="http://www.w3.org/1999/xlink" id="Layer_1" data-name="Layer 1" viewBox="0 0 512 512" width="512" height="512"><defs><linearGradient id="linear-gradient" x1="254" y1="492.965" x2="254" y2="15.455" gradientUnits="userSpaceOnUse"><stop offset="0.322" stop-color="#a163f5"/><stop offset="0.466" stop-color="#b074ee"/><stop offset="0.752" stop-color="#d8a1dd"/><stop offset="0.898" stop-color="#efbad3"/></linearGradient><linearGradient id="linear-gradient-2" x1="159.228" y1="492.965" x2="159.228" y2="15.456" xlink:href="#linear-gradient"/><linearGradient id="linear-gradient-3" x1="88.862" y1="492.965" x2="88.862" y2="15.454" xlink:href="#linear-gradient"/><linearGradient id="linear-gradient-4" x1="357.969" y1="492.965" x2="357.969" y2="15.456" xlink:href="#linear-gradient"/><linearGradient id="linear-gradient-5" x1="429.117" y1="492.965" x2="429.117" y2="15.453" xlink:href="#linear-gradient"/><linearGradient id="linear-gradient-6" x1="441" y1="492.965" x2="441" y2="15.456" xlink:href="#linear-gradient"/><linearGradient id="linear-gradient-7" x1="70" y1="492.965" x2="70" y2="15.456" xlink:href="#linear-gradient"/><linearGradient id="linear-gradient-8" x1="256" y1="492.965" x2="256" y2="15.454" xlink:href="#linear-gradient"/><linearGradient id="linear-gradient-9" x1="256" y1="492.965" x2="256" y2="15.456" xlink:href="#linear-gradient"/><linearGradient id="linear-gradient-10" x1="256" y1="492.965" x2="256" y2="15.456" xlink:href="#linear-gradient"/><linearGradient id="linear-gradient-11" x1="256" y1="492.965" x2="256" y2="15.457" xlink:href="#linear-gradient"/></defs><title>brightning</title><path d="M254,112.467a7,7,0,0,0,7-7V35.2a7,7,0,0,0-14,0v70.263A7,7,0,0,0,254,112.467Z" style="fill:url(#linear-gradient)"/><path d="M172.917,134.029a7,7,0,0,0,6.062-10.491L151.613,75.963a7,7,0,0,0-12.135,6.98l27.365,47.576A7,7,0,0,0,172.917,134.029Z" style="fill:url(#linear-gradient-2)"/><path d="M116.069,183.118,68.674,155.651a7,7,0,0,0-7.02,12.114l47.4,27.466a7,7,0,1,0,7.019-12.113Z" style="fill:url(#linear-gradient-3)"/><path d="M375.142,73.386a7,7,0,0,0-9.558,2.577l-27.365,47.575a7,7,0,1,0,12.134,6.981l27.366-47.576A7,7,0,0,0,375.142,73.386Z" style="fill:url(#linear-gradient-4)"/><path d="M405.426,196.176a6.974,6.974,0,0,0,3.5-.945l47.4-27.466a7,7,0,0,0-7.019-12.114l-47.4,27.467a7,7,0,0,0,3.517,13.058Z" style="fill:url(#linear-gradient-5)"/><path d="M476,269H406a7,7,0,0,0,0,14h70a7,7,0,0,0,0-14Z" style="fill:url(#linear-gradient-6)"/><path d="M105,269H35a7,7,0,0,0,0,14h70a7,7,0,0,0,0-14Z" style="fill:url(#linear-gradient-7)"/><path d="M301.605,468H210.394a6.964,6.964,0,0,0-7,6.959c0,.29.43,29.041,37.658,29.041h29.893c37.23,0,37.66-28.751,37.66-29.041A6.964,6.964,0,0,0,301.605,468Zm-9.919,14.473C287.9,487.5,280.919,490,270.945,490H241.052c-9.973,0-16.95-2.5-20.74-7.527-.128-.171-.252-.473-.37-.473h72.115C291.939,482,291.815,482.3,291.686,482.473Z" style="fill:url(#linear-gradient-8)"/><path d="M304,431H208a7,7,0,0,0,0,14h96a7,7,0,0,0,0-14Z" style="fill:url(#linear-gradient-9)"/><path d="M304,449H208a7,7,0,0,0,0,14h96a7,7,0,0,0,0-14Z" style="fill:url(#linear-gradient-10)"/><path d="M256,137.439a112.9,112.9,0,0,0-79.942,33.121,111.774,111.774,0,0,0-33.492,79.812c0,25.531,12.806,48.167,24.1,68.14,5.346,9.449,10.4,18.376,12.949,25.917a255.636,255.636,0,0,1,10.323,43.336C190.208,408.094,206.883,426,225.87,426h60.258c18.985,0,35.659-17.9,35.929-38.227A251.273,251.273,0,0,1,332.364,344.6c2.609-7.529,7.591-16.451,12.867-25.85,11.344-20.209,24.2-43.138,24.2-68.817C369.434,187.917,318.548,137.439,256,137.439ZM334.065,310a16.344,16.344,0,0,0,.478-4.37A16.715,16.715,0,0,0,324,290.33V259.339l.249-.05c6.309-2.626,7.055-7.262,7.055-9.143S330.688,244,324.38,241h0L265.19,216.332a26.217,26.217,0,0,0-18.38-.012l-59.19,24.638c-6.308,2.629-6.988,7.285-6.988,9.167s.553,6.54,6.862,9.166L202,265.382v29.645a7.114,7.114,0,0,0,5.664,6.845l46.807,10a7.268,7.268,0,0,0,1.5.155,7.083,7.083,0,0,0,1.743-.217l39.137-10A6.892,6.892,0,0,0,302,295.027V268.5l8-3.331v26.108a16.48,16.48,0,1,0,20.211,25.556c-4.517,8.124-8.582,15.856-11.091,23.1a259.937,259.937,0,0,0-11.011,46.262,10.217,10.217,0,0,0-.053,1.079c0,12.848-10.45,24.728-21.928,24.728H225.87c-11.477,0-21.93-11.88-21.93-24.728a8.517,8.517,0,0,0-.056-.971,263.26,263.26,0,0,0-11-46.318c-2.978-8.793-8.344-18.3-14.024-28.342-10.448-18.468-22.289-39.412-22.289-61.258A97.883,97.883,0,0,1,185.918,180.5a99.311,99.311,0,0,1,140.179-.218,97.2,97.2,0,0,1,29.337,69.629C355.434,271.208,344.3,291.744,334.065,310Zm-15.808-6.823a2.452,2.452,0,1,1-2.414,2.453A2.436,2.436,0,0,1,318.257,303.176ZM216,271.211l30.682,12.722a24.8,24.8,0,0,0,9.255,1.663,23.975,23.975,0,0,0,9.093-1.663l22.97-9.6v15.258l-32.4,8.252L216,289.366Zm43.81-.2a12.877,12.877,0,0,1-7.619,0L202.023,250.12l50.168-20.888a12.838,12.838,0,0,1,7.619,0l50.167,20.889Z" style="fill:url(#linear-gradient-11)"/></svg>
