<?xml version="1.0" encoding="UTF-8" standalone="no"?>
<svg
   xmlns:dc="http://purl.org/dc/elements/1.1/"
   xmlns:cc="http://creativecommons.org/ns#"
   xmlns:rdf="http://www.w3.org/1999/02/22-rdf-syntax-ns#"
   xmlns:svg="http://www.w3.org/2000/svg"
   xmlns="http://www.w3.org/2000/svg"
   xmlns:sodipodi="http://sodipodi.sourceforge.net/DTD/sodipodi-0.dtd"
   xmlns:inkscape="http://www.inkscape.org/namespaces/inkscape"
   width="36"
   height="36"
   viewBox="0 0 36 36"
   version="1.1"
   id="svg6"
   sodipodi:docname="logo.svg"
   inkscape:version="0.92.4 (33fec40, 2019-01-16)"
   inkscape:export-filename="/home/abrikos/Projects/minter-earth/client/images/logo.svg.png"
   inkscape:export-xdpi="96"
   inkscape:export-ydpi="96">
  <metadata
     id="metadata12">
    <rdf:RDF>
      <cc:Work
         rdf:about="">
        <dc:format>image/svg+xml</dc:format>
        <dc:type
           rdf:resource="http://purl.org/dc/dcmitype/StillImage" />
      </cc:Work>
    </rdf:RDF>
  </metadata>
  <defs
     id="defs10">
    <inkscape:perspective
       id="perspective10"
       inkscape:persp3d-origin="372.04724 : 350.78739 : 1"
       inkscape:vp_z="744.09448 : 526.18109 : 1"
       inkscape:vp_y="0 : 1000 : 0"
       inkscape:vp_x="0 : 526.18109 : 1"
       sodipodi:type="inkscape:persp3d" />
    <inkscape:perspective
       sodipodi:type="inkscape:persp3d"
       inkscape:vp_x="0 : 0.5 : 1"
       inkscape:vp_y="0 : 1000 : 0"
       inkscape:vp_z="1 : 0.5 : 1"
       inkscape:persp3d-origin="0.5 : 0.33333333 : 1"
       id="perspective2838" />
  </defs>
  <sodipodi:namedview
     pagecolor="#ffffff"
     bordercolor="#666666"
     borderopacity="1"
     objecttolerance="10"
     gridtolerance="10"
     guidetolerance="10"
     inkscape:pageopacity="0"
     inkscape:pageshadow="2"
     inkscape:window-width="2516"
     inkscape:window-height="1376"
     id="namedview8"
     showgrid="false"
     inkscape:zoom="3.2777778"
     inkscape:cx="-147.98573"
     inkscape:cy="12.63449"
     inkscape:window-x="44"
     inkscape:window-y="1307"
     inkscape:window-maximized="1"
     inkscape:current-layer="svg6" />
  <circle
     style="fill:#554eff;fill-opacity:1"
     cx="18"
     cy="18"
     r="18"
     id="circle2" />
  <g
     style="stroke:#000000"
     id="g4154"
     transform="matrix(0.43166862,0,0,0.41962048,-70.804819,-111.33434)">
    <path
       id="path3620"
       d="m 189.15106,271.00919 c -16.36395,25.82487 -6.13124,67.60133 24.74864,77.07478"
       style="fill:none;stroke:#000000;stroke-width:4;stroke-linecap:butt;stroke-linejoin:miter;stroke-miterlimit:4;stroke-dasharray:none;stroke-opacity:1"
       inkscape:connector-curvature="0" />
    <path
       id="path3935"
       d="m 189.15107,271.50922 c 32.09573,2.85285 48.39693,40.47572 41.01228,68.79643"
       style="fill:none;stroke:#000000;stroke-width:4;stroke-linecap:butt;stroke-linejoin:miter;stroke-miterlimit:4;stroke-dasharray:none;stroke-opacity:1"
       inkscape:connector-curvature="0"
       sodipodi:nodetypes="cc" />
    <path
       id="path4227"
       d="m 188.79751,271.00919 33.94113,74.24621"
       style="fill:none;stroke:#000000;stroke-width:4;stroke-linecap:butt;stroke-linejoin:miter;stroke-miterlimit:4;stroke-dasharray:none;stroke-opacity:1"
       inkscape:connector-curvature="0" />
    <path
       id="path4229"
       d="m 171.11984,287.97975 c 16.74685,8.85302 37.73485,-2.8244 44.54772,-19.09171"
       style="fill:none;stroke:#000000;stroke-width:4;stroke-linecap:butt;stroke-linejoin:miter;stroke-miterlimit:4;stroke-dasharray:none;stroke-opacity:1"
       inkscape:connector-curvature="0" />
    <path
       id="path4231"
       d="m 166.52364,306.01098 c 24.60224,7.89225 54.44926,-4.40807 65.05383,-28.28428"
       style="fill:none;stroke:#000000;stroke-width:4;stroke-linecap:butt;stroke-linejoin:miter;stroke-miterlimit:4;stroke-dasharray:none;stroke-opacity:1"
       inkscape:connector-curvature="0" />
    <path
       id="path4233"
       d="m 169.70563,325.80996 c 27.65718,6.82915 61.50704,-5.53724 72.47844,-33.23398"
       style="fill:none;stroke:#000000;stroke-width:4;stroke-linecap:butt;stroke-linejoin:miter;stroke-miterlimit:4;stroke-dasharray:none;stroke-opacity:1"
       inkscape:connector-curvature="0" />
    <path
       sodipodi:open="true"
       sodipodi:end="6.2718853"
       sodipodi:start="0"
       transform="rotate(-0.70769937)"
       d="m 241.53378,310.82489 a 39.766212,40.835579 0 0 1 -39.65388,40.83542 39.766212,40.835579 0 0 1 -39.87791,-40.6047 39.766212,40.835579 0 0 1 39.42856,-41.06483 39.766212,40.835579 0 0 1 40.10069,40.37268"
       sodipodi:ry="40.835579"
       sodipodi:rx="39.766212"
       sodipodi:cy="310.82489"
       sodipodi:cx="201.76756"
       id="path4750"
       style="fill:none;stroke:#000000;stroke-width:4;stroke-miterlimit:4;stroke-dasharray:none;stroke-opacity:1"
       sodipodi:type="arc" />
    <path
       id="path4235"
       d="m 180.66579,340.30565 c 24.57844,8.65261 55.43914,-4.1511 64.70028,-28.99143"
       style="fill:none;stroke:#000000;stroke-width:4;stroke-linecap:butt;stroke-linejoin:miter;stroke-miterlimit:4;stroke-dasharray:none;stroke-opacity:1"
       inkscape:connector-curvature="0" />
    <path
       sodipodi:open="true"
       sodipodi:type="arc"
       style="fill:none;stroke:#000000;stroke-width:4;stroke-miterlimit:4;stroke-dasharray:none;stroke-opacity:1"
       id="path4152"
       sodipodi:cx="-209.38359"
       sodipodi:cy="305.74622"
       sodipodi:rx="39.766212"
       sodipodi:ry="40.835579"
       d="m -248.78199,311.28744 a 39.766212,40.835579 0 0 1 -0.31225,-7.69921"
       transform="matrix(-0.99992372,-0.01235137,-0.01235137,0.99992372,0,0)"
       sodipodi:start="3.0054768"
       sodipodi:end="3.194463" />
  </g>
  <path
     d="M17.9 16.73l2.1-2.05a1.44 1.44 0 0 1 2 0c.54.53.54 1.4 0 1.93l-3 2.91a1.44 1.44 0 0 1-2.1.11l-7.3-7.08a1.33 1.33 0 0 1 0-1.93 1.44 1.44 0 0 1 1.99 0l6.3 6.11zm-7.3-.99c.77 0 1.4.7 1.4 1.55v8.9c0 .86-.63 1.56-1.4 1.56-.79 0-1.42-.7-1.42-1.55v-8.9c0-.87.63-1.56 1.41-1.56zm14.81-5.52c.78 0 1.41.67 1.41 1.5v14.54c0 .82-.63 1.49-1.4 1.49-.78 0-1.41-.67-1.41-1.49V11.71c0-.82.63-1.49 1.4-1.49z"
     id="path4"
     fill="#FFF" />
</svg>
