<?xml version="1.0" encoding="UTF-8"?>
<!DOCTYPE svg PUBLIC "-//W3C//DTD SVG 1.1//EN" "http://www.w3.org/Graphics/SVG/1.1/DTD/svg11.dtd">
<!-- Creator: CorelDRAW X7 -->
<svg xmlns="http://www.w3.org/2000/svg" xml:space="preserve" width="400px" height="300px" version="1.1" style="shape-rendering:geometricPrecision; text-rendering:geometricPrecision; image-rendering:optimizeQuality; fill-rule:evenodd; clip-rule:evenodd"
viewBox="0 0 76 57"
 xmlns:xlink="http://www.w3.org/1999/xlink">
 <defs>
  <style type="text/css">
   <![CDATA[
    .fil0 {fill:#3E2D8F}
    .fil1 {fill:#FEFEFE;fill-rule:nonzero}
   ]]>
  </style>
 </defs>
 <g id="Слой_x0020_1">
  <metadata id="CorelCorpID_0Corel-Layer"/>
  <rect class="fil0" width="75.7013" height="56.7759"/>
  <path class="fil1" d="M13 15c0,-2 0,-3 -1,-3 -1,0 -1,1 -1,1l-1 6 -3 0 3 -11c-1,0 -2,0 -2,0 0,1 -1,2 -1,3 0,1 1,1 1,1 0,0 0,0 0,0 -1,0 -2,0 -2,-1 0,0 0,0 0,-1 0,0 0,0 0,-1 0,0 1,-1 1,-1 1,-1 3,-2 5,-2 0,0 0,0 0,0l1 0c1,1 1,1 2,1 0,0 1,-1 1,-1l0 1c0,0 0,1 -1,1 0,0 0,0 0,0 -1,0 -2,0 -3,0l-1 4c1,0 1,0 2,0 1,0 1,0 2,0 0,1 1,2 1,3 0,1 -1,1 -1,2 -1,1 -1,1 -1,2 -1,0 -1,0 -2,0 -1,0 -1,0 -1,-1 -1,0 -1,0 -1,0 0,-1 0,-1 1,-1 0,0 0,0 1,0 0,0 0,0 0,0 1,0 1,-1 1,-2zm10 1c-1,2 -3,3 -4,3 -1,0 -2,0 -2,-1 -1,0 -1,-1 -1,-2 0,-1 0,-2 1,-3 1,-1 1,-2 2,-2 1,-1 1,-1 1,-1 1,0 2,0 2,1 0,0 0,0 0,1 0,1 0,2 -1,2 0,1 -1,1 -2,1 0,1 0,1 0,1 0,1 0,1 0,1 0,0 0,0 1,0 0,0 1,0 1,0 1,0 1,-1 2,-1l0 0zm-2 -4c0,-1 0,-1 0,-1 -1,0 -1,1 -1,1 -1,1 -1,2 -1,3 0,0 1,-1 1,-1 1,-1 1,-1 1,-2zm4 6l-1 4 -3 1 3 -13 2 0 0 1c1,0 1,-1 2,-1 1,0 2,1 2,2 0,0 0,0 0,1 0,0 0,1 0,1 0,1 0,1 0,1 0,1 -1,1 -1,2 0,0 0,0 -1,1 0,0 0,0 -1,1 0,0 -1,0 -1,0 -1,0 -1,0 -1,-1zm3 -5c0,-1 -1,-1 -1,-1 0,0 0,0 -1,0 0,0 0,0 0,0l-1 5c0,0 0,0 0,0 1,0 1,0 1,0 1,-1 1,-2 2,-3 0,0 0,-1 0,-1zm5 3c0,1 0,1 0,1 1,0 1,0 2,-1l1 -6 2 0 -2 10c0,1 0,2 -1,2 -1,1 -1,1 -2,1 0,0 -1,0 -1,-1 -1,0 -1,0 -1,-1 0,0 0,-1 0,-1 1,0 1,0 1,-1 0,0 1,0 2,0l0 -1c0,0 -1,1 -2,1 0,0 -1,0 -1,-1 0,0 0,0 0,-1 0,0 0,-1 0,-1l1 -6 2 0 -1 6c0,0 0,0 0,0zm1 3c-1,0 -1,1 -1,1 -1,0 -1,0 -1,1 0,0 0,0 0,0 0,0 1,0 1,0 0,0 0,0 0,0 1,0 1,0 1,-1l0 -1zm23 -1l0 4 -3 1 3 -13 2 0 0 1c1,0 1,-1 2,-1 1,0 1,1 2,2 0,0 0,0 0,1 0,0 0,1 0,1 0,1 0,1 0,1 -1,1 -1,1 -1,2 0,0 0,0 -1,1 0,0 0,0 -1,1 0,0 -1,0 -1,0 -1,0 -1,0 -2,-1zm4 -5c0,-1 -1,-1 -1,-1 0,0 -1,0 -1,0 0,0 0,0 0,0l-1 5c0,0 0,0 0,0 1,0 1,0 1,0 1,-1 1,-2 2,-3 0,0 0,-1 0,-1zm5 3c0,1 0,1 0,1 1,0 1,0 2,-1l1 -6 2 0 -2 10c0,1 0,2 -1,2 -1,1 -1,1 -2,1 0,0 -1,0 -1,-1 -1,0 -1,0 -1,-1 0,0 0,-1 0,-1 1,0 1,0 1,-1 0,0 1,0 2,0l0 -1c0,0 -1,1 -2,1 0,0 -1,0 -1,-1 0,0 -1,0 -1,-1 0,0 1,-1 1,-1l1 -6 2 0 -1 6c0,0 0,0 0,0zm1 3c-1,0 -1,1 -1,1 -1,0 -1,0 -1,1 0,0 0,0 0,0 0,0 1,0 1,0 0,0 0,0 0,0 1,0 1,0 1,-1l0 -1zm-28 0l2 -11 -2 0 0 0c1,0 2,0 2,-1 1,0 2,0 3,-1l-3 13 -2 0zm8 0l1 -5 -4 0c0,0 0,0 0,-1l1 -2c1,-1 1,-3 1,-4 0,0 0,0 0,-1 1,0 1,1 2,1 0,0 0,1 0,1 0,0 0,1 -1,1 0,1 0,1 0,2 0,0 -1,0 -1,1 0,0 0,1 -1,1l3 0 1 -6 3 -1 -2 7 1 0 0 1 -1 0 -1 5 -2 0zm7 -2c0,0 0,0 0,0 0,1 0,1 0,1 0,1 -1,1 -1,1 0,0 -1,0 -1,-1 0,0 0,0 0,-1 0,0 0,0 0,0 0,-1 1,-1 1,-1 0,0 1,0 1,1z"/>
  <path class="fil1" d="M9 32l-2 -4 1 0 1 2 0 1c0,0 0,0 1,-1l0 -2 1 0 1 2 0 1 0 -1 1 -2 1 0 -2 4 0 0 -1 -2 0 -1 -1 3 -1 0zm6 0l-1 -4 1 0 1 2 0 1c0,0 0,0 0,-1l1 -2 1 0 0 2 1 1 0 -1 1 -2 1 0 -2 4 -1 0 -1 -2 0 -1 -1 3 -1 0zm7 0l-1 -4 0 0 1 2 0 1c1,0 1,0 1,-1l0 -2 1 0 1 2 0 1 1 -1 0 -2 1 0 -1 4 -1 0 -1 -2 0 -1 -1 3 -1 0zm6 0l0 -1 0 0 0 1 0 0zm2 0l0 -6 2 0c1,0 1,0 2,0 0,0 0,0 0,1 0,0 1,0 1,1 0,0 -1,0 -1,0 0,1 0,1 0,1 0,0 0,0 1,1 0,0 0,0 0,0 0,1 0,1 0,1 0,1 -1,1 -1,1 0,0 0,0 -1,0 0,0 0,0 -1,0l-2 0zm1 -3l1 0c1,0 1,0 1,0 0,-1 0,-1 1,-1 0,0 0,0 0,0 0,-1 0,-1 0,-1 -1,0 -1,0 -1,0 0,0 0,0 -1,0l-1 0 0 2zm0 3l1 0c1,0 1,0 1,0 0,0 0,-1 1,-1 0,0 0,0 0,0 0,0 0,0 0,-1 0,0 0,0 0,0 0,0 -1,0 -1,-1 0,0 0,0 -1,0l-1 0 0 3zm8 -1l1 0c0,0 0,1 -1,1 0,0 0,0 -1,0 -1,0 -1,0 -2,0 0,-1 0,-1 0,-2 0,-1 0,-1 0,-2 1,0 1,0 2,0 1,0 1,0 1,0 1,1 1,1 1,2 0,0 0,0 0,0l-3 0c0,1 0,1 0,1 0,1 1,1 1,1 0,0 1,0 1,0 0,-1 0,-1 0,-1zm-2 -1l2 0c0,-1 0,-1 0,-1 0,-1 -1,-1 -1,-1 0,0 -1,0 -1,1 0,0 0,0 0,1zm4 2l0 -4 1 0 0 0c0,0 0,0 0,0 0,0 1,0 1,0 0,0 0,0 1,0l-1 1c0,-1 0,-1 0,-1 0,0 -1,0 -1,1 0,0 0,0 0,0 0,0 0,1 0,1l0 2 -1 0zm6 0l0 0c0,0 -1,0 -1,0 -1,0 -1,0 -1,0 0,0 0,0 -1,0 0,0 0,0 0,-1 0,0 0,0 0,0l0 -3 1 0 0 2c0,1 0,1 0,1 0,0 0,0 0,1 0,0 1,0 1,0 0,0 0,0 1,0 0,-1 0,-1 0,-1 0,0 0,0 0,-1l0 -2 1 0 0 4 -1 0zm5 0l-1 0 0 -5c0,0 0,1 -1,1 0,0 0,0 0,0l0 -1c0,0 0,0 1,0 0,-1 0,-1 0,-1l1 0 0 6zm5 0l0 -1 -3 0 0 -1 3 -4 0 0 0 4 1 0 0 1 -1 0 0 1 0 0zm0 -2l0 -3 -2 3 2 0zm3 2l0 -1 1 0 0 1 -1 0zm2 0l0 -4 1 0 0 0c0,0 0,0 0,0 0,0 0,0 1,0 0,0 0,0 1,0l-1 1c0,-1 0,-1 0,-1 -1,0 -1,0 -1,1 0,0 0,0 0,0 0,0 0,1 0,1l0 2 -1 0zm6 0l0 0c0,0 -1,0 -1,0 -1,0 -1,0 -1,0 0,0 -1,0 -1,0 0,0 0,0 0,-1 0,0 0,0 0,0l0 -3 1 0 0 2c0,1 0,1 0,1 0,0 0,0 0,1 0,0 1,0 1,0 0,0 0,0 0,0 1,-1 1,-1 1,-1 0,0 0,0 0,-1l0 -2 1 0 0 4 -1 0z"/>
 </g>
</svg>
