<?xml version="1.0"?>
<svg xmlns="http://www.w3.org/2000/svg" xmlns:xlink="http://www.w3.org/1999/xlink" id="Layer_1" data-name="Layer 1" viewBox="0 0 512 512" width="512" height="512"><defs><linearGradient id="linear-gradient" x1="301.287" y1="482.065" x2="301.287" y2="22.537" gradientUnits="userSpaceOnUse"><stop offset="0.322" stop-color="#a163f5"/><stop offset="0.466" stop-color="#b074ee"/><stop offset="0.752" stop-color="#d8a1dd"/><stop offset="0.898" stop-color="#efbad3"/></linearGradient><linearGradient id="linear-gradient-2" x1="210.713" y1="482.065" x2="210.713" y2="22.537" xlink:href="#linear-gradient"/><linearGradient id="linear-gradient-3" x1="256" y1="482.065" x2="256" y2="22.537" xlink:href="#linear-gradient"/></defs><title>Financial security</title><path d="M447.249,197.572a6,6,0,0,0-10.035,0l-53.768,81.984a6.137,6.137,0,0,0-.262,6.217A6.071,6.071,0,0,0,388.463,289h45.868a188.129,188.129,0,0,1-64.316,117.562c-33.182,28.453-74.866,44.732-114.364,44.732-25.761,0-52.7-6.963-77.891-20.1a193.6,193.6,0,0,1-66.346-56.918,6,6,0,1,0-9.681,7.083,205.636,205.636,0,0,0,70.479,60.458c26.9,14.026,55.754,21.439,83.439,21.439,42.319,0,86.851-17.295,122.175-47.584A201.5,201.5,0,0,0,446.432,289H496a6.095,6.095,0,0,0,5.017-9.406ZM399.573,277l42.659-65.043L484.89,277Z" style="fill:url(#linear-gradient)"/><path d="M128.816,226.227A6.071,6.071,0,0,0,123.537,223H77.669a188.129,188.129,0,0,1,64.316-117.562c33.182-28.453,74.866-44.732,114.364-44.732,25.762,0,52.695,6.963,77.891,20.1a193.6,193.6,0,0,1,66.346,56.918,6,6,0,1,0,9.681-7.083,205.615,205.615,0,0,0-70.479-60.458c-26.9-14.026-55.754-21.439-83.439-21.439-42.319,0-86.851,17.3-122.175,47.584A201.5,201.5,0,0,0,65.568,223H16a6.095,6.095,0,0,0-5.017,9.406l53.768,82a6,6,0,0,0,10.035.015l53.768-82.02A6.062,6.062,0,0,0,128.816,226.227ZM69.768,300.043,27.11,235h85.317Z" style="fill:url(#linear-gradient-2)"/><path d="M258.645,117.047a6.005,6.005,0,0,0-5.284,0L147.186,169.13A5.845,5.845,0,0,0,144,174.519V274.17c0,25.818,16.547,57.444,37.894,72l70.813,48.354a5.85,5.85,0,0,0,3.337,1.043,5.918,5.918,0,0,0,3.358-1.043l70.714-48.354c21.347-14.556,37.884-46.182,37.884-72v-99.5a5.846,5.846,0,0,0-3.18-5.386ZM356,274.17c0,21.892-14.553,49.743-32.656,62.086l-67.431,46.049-67.3-46.049C170.816,324.122,156,295.69,156,274.17V178.261l100-49.146L356,178.4Z" style="fill:url(#linear-gradient-3)"/><path d="M215.191,248.6a6,6,0,1,0-8.382,8.586l32.124,31.363a6,6,0,0,0,8.383,0l57.875-56.5a6,6,0,0,0-8.382-8.586l-53.685,52.411Z" style="fill:url(#linear-gradient-3)"/></svg>
