<?xml version="1.0"?>
<svg xmlns="http://www.w3.org/2000/svg" xmlns:xlink="http://www.w3.org/1999/xlink" id="Layer_1" data-name="Layer 1" viewBox="0 0 512 512" width="512" height="512"><defs><linearGradient id="linear-gradient" x1="256" y1="486.781" x2="256" y2="21.579" gradientUnits="userSpaceOnUse"><stop offset="0.322" stop-color="#a163f5"/><stop offset="0.466" stop-color="#b074ee"/><stop offset="0.752" stop-color="#d8a1dd"/><stop offset="0.898" stop-color="#efbad3"/></linearGradient><linearGradient id="linear-gradient-2" x1="249.406" y1="486.781" x2="249.406" y2="21.58" xlink:href="#linear-gradient"/></defs><title>search book</title><path d="M459.637,115.019A10.8,10.8,0,0,0,448.783,106H418.677l-9.711-59.158a11.019,11.019,0,0,0-12.31-9.211c-11.269,1.518-50.992,8.587-88.987,36.458-20.154,14.783-41.476,37.737-51.4,48.923-2.714-3.393-6.782-8.365-11.639-13.9C231.147,93.745,218.7,81.929,207.651,74.005c-40.973-29.377-81.284-35.461-92.663-36.625a11.167,11.167,0,0,0-11.965,9.346L93.293,106H63.216a10.8,10.8,0,0,0-10.853,9.016l-32.5,196.671a10.466,10.466,0,0,0,2.465,8.669A10.764,10.764,0,0,0,30.715,324H156.678a108.489,108.489,0,0,0,13.706,16.888,111.886,111.886,0,0,0,128.949,21.446l5.3,5.481A18.3,18.3,0,0,0,317.692,373h0a25.3,25.3,0,0,0,9.6-2.106l74.627,74.831c-3.7,7.877-3.11,16.539,2.264,21.933l9.57,9.588a7,7,0,0,0,9.918-.013l39.82-39.973a7,7,0,0,0,0-9.882l-9.57-9.607a17.683,17.683,0,0,0-12.612-5.231,20.417,20.417,0,0,0-8.938,2.137l-74.143-74.612A21.483,21.483,0,0,0,358.618,324H481.285a10.807,10.807,0,0,0,8.388-3.691,10.571,10.571,0,0,0,2.465-8.718ZM315.949,85.33a190.15,190.15,0,0,1,79.682-33.492l31.444,190.924c-10.312.694-41.7,3.522-65.665,13.155a112.148,112.148,0,0,0-32.6-73.786A111,111,0,0,0,263,150V136.562C269.5,129.055,293.923,101.485,315.949,85.33Zm-199.576-33.7c13.3,1.718,47.823,8.439,83.121,33.746,21.3,15.268,43.974,43.855,49.506,51.03v12.8A112.069,112.069,0,0,0,138.151,250.823c-20.034-5.346-41.718-7.321-53.259-8.03ZM34.251,310l31.51-190H90.988L70.535,244.005a10.8,10.8,0,0,0,2.29,8.6,10.958,10.958,0,0,0,8.01,4.03c10.24.512,35.245,2.144,56.869,8.426A110.885,110.885,0,0,0,148.682,310ZM180.3,331.2a98.791,98.791,0,0,1,0-139.187,97.736,97.736,0,0,1,138.592,0,98.794,98.794,0,0,1,0,139.187,97.733,97.733,0,0,1-138.592,0Zm137.391,27.515a4.725,4.725,0,0,1-3.144-.9l-2.708-2.716a113.28,113.28,0,0,0,30.112-29.88l2.5,2.507c2.1,2.1,2.357,6.385-.878,9.632l-17.966,18.033a11.744,11.744,0,0,1-7.913,3.322Zm92.937,75.85-72.07-72.337,10.895-10.936,72.07,72.337Zm30.678-8.024A3.633,3.633,0,0,1,444,427.651l4.647,4.666L418.71,462.37l-4.61-4.628c-1.337-1.343-.5-6.318,3.34-10.178l17.966-18.033A8.922,8.922,0,0,1,441.308,426.54ZM350.513,310a109.516,109.516,0,0,0,10.617-38.848c20.659-10.112,54.31-14,69.942-14.7a10.946,10.946,0,0,0,8.048-4.007,10.536,10.536,0,0,0,2.311-8.506L420.982,120h25.256l31.511,190Z" style="fill:url(#linear-gradient)"/><path d="M309.19,201.826a84.329,84.329,0,0,0-119.568,0,85.135,85.135,0,0,0,0,119.944,83.84,83.84,0,0,0,59.783,24.854h0A83.842,83.842,0,0,0,309.19,321.77,85.135,85.135,0,0,0,309.19,201.826Zm-9.917,110.063a70.331,70.331,0,0,1-99.733,0,71.108,71.108,0,0,1,0-100.182,70.331,70.331,0,0,1,99.733,0A71.11,71.11,0,0,1,299.273,311.889Z" style="fill:url(#linear-gradient-2)"/></svg>
