<?xml version="1.0"?>
<svg xmlns="http://www.w3.org/2000/svg" xmlns:xlink="http://www.w3.org/1999/xlink" id="Layer_1" data-name="Layer 1" viewBox="0 0 512 512" width="512" height="512"><defs><linearGradient id="linear-gradient" x1="255.991" y1="498.721" x2="255.991" y2="4.035" gradientUnits="userSpaceOnUse"><stop offset="0.322" stop-color="#a163f5"/><stop offset="0.466" stop-color="#b074ee"/><stop offset="0.752" stop-color="#d8a1dd"/><stop offset="0.898" stop-color="#efbad3"/></linearGradient><linearGradient id="linear-gradient-2" x1="255.964" y1="498.721" x2="255.964" y2="4.033" xlink:href="#linear-gradient"/></defs><title>atom</title><path d="M255.991,215.234a41.631,41.631,0,1,0,41.5,41.631A41.614,41.614,0,0,0,255.991,215.234Zm0,69.262a27.631,27.631,0,1,1,27.5-27.631A27.6,27.6,0,0,1,255.991,284.5Z" style="fill:url(#linear-gradient)"/><path d="M445,332.486v0a23.954,23.954,0,0,0-4.859-33.63,23.632,23.632,0,0,0-22.355-3.233,409.616,409.616,0,0,0-33.537-38.679,405.906,405.906,0,0,0,40.692-48.582c28.2-40.275,35.959-73.045,21.841-92.274-6.113-8.325-15.76-13.539-28.679-15.494-23.043-3.486-56.138,3.869-93.691,19.712q-2.247-8.964-4.8-17.357a24.068,24.068,0,0,0-13.675-44h0a24.036,24.036,0,0,0-4.1.4c-13.912-26.207-30.423-40.01-47.968-40.01l-.35,0c-23.822.25-45.249,26.19-60.336,73.043-2.749,8.538-5.247,17.612-7.485,27.136-36.783-15.3-69.165-22.358-91.823-18.929-12.919,1.956-22.568,7.169-28.682,15.494-14.119,19.229-6.365,52,21.834,92.274a405.635,405.635,0,0,0,40.678,48.581,410.06,410.06,0,0,0-33.564,38.68,24.214,24.214,0,0,0-4.689-1.2,23.8,23.8,0,0,0-17.832,4.432,24.138,24.138,0,0,0-5.079,33.631h0a24.318,24.318,0,0,0,2.75,3.113c-13.139,26.834-14.578,48.458-4.1,62.728,6.113,8.325,15.763,13.538,28.681,15.493a80.7,80.7,0,0,0,12.107.852c21.987,0,50.425-7.388,81.988-20.743,2.6,10.355,5.481,20.185,8.654,29.377,15.98,46.3,37.806,71.766,61.494,71.765.114,0,.232,0,.346,0,23.821-.249,45.249-26.19,60.335-73.042,2.75-8.541,5.247-17.618,7.486-27.145,30.655,12.752,58.26,19.792,79.717,19.79a81.1,81.1,0,0,0,12.106-.851c12.919-1.956,22.57-7.169,28.683-15.494,10.477-14.269,8.819-35.887-4.313-62.714C443.468,334.658,445,333.618,445,332.486Zm-20.375-24.221a10.1,10.1,0,0,1,1.507-.114,9.89,9.89,0,0,1,5.9,1.957,10.115,10.115,0,0,1,2.121,14.092,9.961,9.961,0,0,1-13.967,2.127,10.114,10.114,0,0,1-2.121-14.091A9.928,9.928,0,0,1,424.625,308.265ZM331,132.623c35.146-14.707,65.334-21.168,85.015-18.189,9.1,1.378,15.663,4.722,19.493,9.938,10.139,13.808,2.113,41.493-22.018,75.958a391.215,391.215,0,0,1-39.114,46.731q-16.59-16.118-35.942-32.184a565.206,565.206,0,0,0-10.817-80.8C328.74,133.593,329.874,133.093,331,132.623ZM297.514,313.8c-13.762,10.181-27.666,19.672-41.523,28.4-13.857-8.724-27.761-18.215-41.523-28.4q-14.079-10.416-27.252-21.239c-.69-11.35-1.1-22.913-1.225-34.62-.125-12.046.064-23.945.547-35.623q13.374-10.925,27.929-21.7c13.762-10.181,27.666-19.672,41.524-28.4,13.858,8.724,27.761,18.215,41.524,28.4q14.213,10.515,27.318,21.2.966,16.909,1.157,34.655c.125,12.012-.062,23.878-.543,35.524Q311.983,303.081,297.514,313.8Zm26.883-2.955a543.275,543.275,0,0,1-8.227,64.388,525.088,525.088,0,0,1-46.915-24.918c12.189-7.837,24.433-16.269,36.585-25.26Q315.311,318.047,324.4,310.843Zm-81.671,39.47c-15.187,9.032-30.24,17.07-44.915,23.973a547.737,547.737,0,0,1-9.149-62.6q8.565,6.762,17.48,13.362C218.3,334.044,230.537,342.476,242.726,350.313Zm-70.735-92.229q.115,11.128.576,22.079-13.188-11.5-25.095-23.173,11.622-11.284,24.669-22.579Q171.871,246.14,171.991,258.084Zm15.6-54.559a543.264,543.264,0,0,1,8.223-64.346A524.6,524.6,0,0,1,242.721,164.1c-12.187,7.836-24.429,16.274-36.58,25.263Q196.627,196.4,187.587,203.525Zm81.674-39.43c15.317-9.109,30.5-17.209,45.292-24.151a536.51,536.51,0,0,1,8.929,62.862q-8.6-6.761-17.641-13.448C293.69,180.369,281.448,171.931,269.261,164.1Zm70.729,92.231q-.117-11.282-.55-22.262,13.254,11.45,25.07,22.926-11.679,11.452-24.664,22.8Q340.11,268.164,339.99,256.326ZM306.081,73h.1a10,10,0,0,1,.1,20h-.1a10,10,0,0,1-.1-20ZM206.509,96.676c12.9-40.071,30.091-63.156,47.156-63.335,11.914-.13,24.536,11.361,35.758,32.473A24.006,24.006,0,0,0,306.182,107h.051c1.853,6,3.583,12.443,5.185,19a550.728,550.728,0,0,0-55.427,29.763A547.1,547.1,0,0,0,198.748,125.2C201.046,115.145,203.634,105.606,206.509,96.676Zm-130.03,27.7c3.829-5.216,10.387-8.56,19.492-9.938,19.677-2.977,49.867,3.482,85.015,18.189.566.237,1.138.492,1.7.733a569.388,569.388,0,0,0-9.847,82.11q-18.9,15.727-35.234,31.6A391.4,391.4,0,0,1,98.5,200.33C74.364,165.865,66.34,138.18,76.479,124.372Zm3.467,185.736a9.96,9.96,0,0,1,13.966,2.127,10.115,10.115,0,0,1-2.119,14.092A9.96,9.96,0,0,1,77.826,324.2h0A10.115,10.115,0,0,1,79.946,310.108Zm101.038,71.68c-35.149,14.709-65.341,21.17-85.014,18.189-9.105-1.378-15.662-4.722-19.492-9.938-7.094-9.658-5.19-26.644,5.3-48.128.169.029.333.076.5.1a24.4,24.4,0,0,0,3.635.275,23.782,23.782,0,0,0,14.2-4.706,24.14,24.14,0,0,0,5.173-33.5,395.726,395.726,0,0,1,32.273-37.212c11.183,10.971,23.266,21.9,36.078,32.615a574.228,574.228,0,0,0,11.119,80.678C183.5,380.708,182.236,381.264,180.984,381.788ZM305.472,417.7c-12.9,40.071-30.09,63.3-47.156,63.3h-.2c-17,0-34.581-22.662-48.26-62.3-3.284-9.514-6.254-19.725-8.9-30.544a550.993,550.993,0,0,0,55.031-29.547,546.95,546.95,0,0,0,57.245,30.556C310.936,399.229,308.348,408.768,305.472,417.7Zm130.033-27.66c-3.83,5.215-10.388,8.559-19.493,9.937-19.676,2.976-49.868-3.481-85.015-18.189-.565-.237-1.14-.493-1.707-.733a569.437,569.437,0,0,0,9.855-82.245c12.512-10.5,24.324-21.2,35.271-31.937a395.477,395.477,0,0,1,32.274,37.213,24.14,24.14,0,0,0,5.173,33.5,23.79,23.79,0,0,0,14.2,4.7,24.271,24.271,0,0,0,3.636-.276c.17-.026.338-.06.507-.089C440.694,363.4,442.6,380.382,435.505,390.04Z" style="fill:url(#linear-gradient-2)"/></svg>
